<svg xmlns="http://www.w3.org/2000/svg" width="1024" height="1024" viewBox="0 0 1024 1024"><title>Connector Foundry</title><desc>Two machined plates with a dovetail connection, in orange and pale metal on a charcoal tile.</desc><defs><linearGradient id="tile" x1="0" x2=".85" y1="0" y2="1"><stop stop-color="#303b4a"/><stop offset="1" stop-color="#111720"/></linearGradient><linearGradient id="orange" x1="0" x2=".8" y1="0" y2="1"><stop stop-color="#ffbc66"/><stop offset=".5" stop-color="#ff983c"/><stop offset="1" stop-color="#ee6b27"/></linearGradient><linearGradient id="metal" x1="0" x2=".8" y1="0" y2="1"><stop stop-color="#fff"/><stop offset=".5" stop-color="#e5edf0"/><stop offset="1" stop-color="#aabfc9"/></linearGradient><linearGradient id="rim" x1="0" x2="0" y1="0" y2="1"><stop stop-color="#fff" stop-opacity=".25"/><stop offset="1" stop-color="#fff" stop-opacity=".02"/></linearGradient><filter id="shadow" width="160%" height="160%" x="-30%" y="-20%"><feDropShadow dx="0" dy="18" flood-color="#03070c" flood-opacity=".5" stdDeviation="20"/></filter><path id="left" d="M300 282 H458 V408 H576 L532 494 L576 580 H458 V706 H300 Q266 706 266 672 V316 Q266 282 300 282 Z"/><path id="right" d="M560 282 H724 Q758 282 758 316 V672 Q758 706 724 706 H560 V612 H626 L566 494 L626 376 H560 Z"/></defs><rect width="896" height="896" x="64" y="72" fill="#080d14" opacity=".22" rx="202"/><rect width="896" height="896" x="64" y="64" fill="url(#tile)" rx="202"/><rect width="890" height="890" x="67" y="67" fill="none" stroke="url(#rim)" stroke-width="6" rx="199"/><g filter="url(#shadow)"><use fill="#a8431b" href="#left" transform="translate(0 24)"/><use fill="#617985" href="#right" transform="translate(0 24)"/><use fill="url(#orange)" stroke="#ffd195" stroke-linejoin="round" stroke-opacity=".5" stroke-width="3" href="#left"/><use fill="url(#metal)" stroke="#fff" stroke-linejoin="round" stroke-opacity=".65" stroke-width="3" href="#right"/></g><g fill="#17202b"><circle cx="358" cy="364" r="27"/><circle cx="358" cy="624" r="27"/><circle cx="684" cy="364" r="27"/><circle cx="684" cy="624" r="27"/></g><g fill="none" stroke-width="4"><path stroke="#ffce8b" d="M332 368 A27 27 0 0 0 384 368 M332 628 A27 27 0 0 0 384 628" opacity=".7"/><path stroke="#fff" d="M658 368 A27 27 0 0 0 710 368 M658 628 A27 27 0 0 0 710 628" opacity=".8"/></g></svg>